<svg xmlns="http://www.w3.org/2000/svg"  viewBox="0 0 100 100" width="100px" height="100px"><path d="M42.985,100.028c-3.336,0-6.475-1.299-8.837-3.658L24,86 c-2.359-2.356-5-5.615-5-8.957v-7.162c-2.958-2.355-6-6.852-6-15.381c0-3.009,0.628-5.259,1.533-6.94 c-0.031-0.017-0.062-0.034-0.094-0.052c-2.998-1.616-4.24-5.315-2.824-8.418l1.522-3.332c-1.312-2.244-2.823-4.907-3.527-6.425 c-0.844-1.818-0.809-3.885,0.095-5.671c0.897-1.779,2.539-3.035,4.502-3.436l2.223-0.454c-0.556-1.421-0.597-3.023-0.1-4.477 c0.561-1.639,1.777-3.008,3.338-3.757c0.717-0.343,7.203-3.333,15.507-3.333c0.321,0,0.642,0.005,0.961,0.014 c0.57-2.822,2.929-4.95,5.861-5.181c0.141-0.012,0.771-0.059,1.762-0.059c2.45,0,6.364,0.273,10.506,1.655 c0.285-0.386,0.615-0.742,0.987-1.062c1.176-1.017,2.685-1.578,4.244-1.578c0.405,0,0.812,0.038,1.211,0.113 c1.221,0.233,10.842,2.286,17.599,10.168l1.479-0.681c0.858-0.395,1.771-0.594,2.715-0.594c1.322,0,2.598,0.396,3.687,1.146 c1.879,1.293,2.952,3.51,2.801,5.786l-0.077,1.152c1.735,0.384,3.257,1.471,4.179,3.018c1.079,1.808,1.213,4.038,0.358,5.965 l-0.326,0.733l0.858,2.013c0.749,1.752,0.69,3.74-0.163,5.451c-0.757,1.511-2.053,2.652-3.617,3.215l0.646,2.908 c0.425,1.908-0.049,3.915-1.241,5.433C90.435,49.474,91,51.646,91,54.5c0,8.949-3.123,13.424-6,15.646v6.896 c0,3.341-1.301,6.48-3.663,8.841L69.854,96.366c-2.363,2.362-5.502,3.662-8.839,3.662H42.985z" opacity=".35"/><path fill="#f2f2f2" d="M40.985,98.028c-3.336,0-6.475-1.299-8.837-3.658L20.661,83.881C18.302,81.524,17,78.385,17,75.043 v-7.162c-2.958-2.355-6-6.852-6-15.381c0-3.009,0.628-5.259,1.533-6.94c-0.031-0.017-0.062-0.034-0.094-0.052 c-2.998-1.616-4.24-5.315-2.824-8.418l1.522-3.332c-1.312-2.244-2.823-4.907-3.527-6.425c-0.844-1.818-0.809-3.885,0.095-5.671 c0.897-1.779,2.539-3.035,4.502-3.436l2.223-0.454c-0.556-1.421-0.597-3.023-0.1-4.477c0.561-1.639,1.777-3.008,3.338-3.757 c0.717-0.343,7.203-3.333,15.507-3.333c0.321,0,0.642,0.005,0.961,0.014c0.57-2.822,2.929-4.95,5.861-5.181 c0.141-0.012,0.771-0.059,1.762-0.059c2.45,0,6.364,0.273,10.506,1.655c0.285-0.386,0.615-0.742,0.987-1.062 c1.176-1.017,2.685-1.578,4.244-1.578c0.405,0,0.812,0.038,1.211,0.113c1.221,0.233,10.842,2.286,17.599,10.168l1.479-0.681 c0.858-0.395,1.771-0.594,2.715-0.594c1.322,0,2.598,0.396,3.687,1.146c1.879,1.293,2.952,3.51,2.801,5.786l-0.077,1.152 c1.735,0.384,3.257,1.471,4.179,3.018c1.079,1.808,1.213,4.038,0.358,5.965l-0.326,0.733l0.858,2.013 c0.749,1.752,0.69,3.74-0.163,5.451c-0.757,1.511-2.053,2.652-3.617,3.215l0.646,2.908c0.425,1.908-0.049,3.915-1.241,5.433 C88.435,47.474,89,49.646,89,52.5c0,8.949-3.123,13.424-6,15.646v6.896c0,3.341-1.301,6.48-3.663,8.841L67.854,94.366 c-2.363,2.362-5.502,3.662-8.839,3.662H40.985z"/><path fill="#96c362" d="M76.5,47.5l6-5.701l-2.017-9.08L86,31.364l-1.966-4.612l1.471-3.32L80,23l0.501-7.498l-6.473,2.975 C69.073,8.694,57.497,6.496,57.497,6.496l0.293,7.01c-6.352-6.844-17.284-5.988-17.284-5.988L40,13.607 c-10-2.775-19.52,1.792-19.52,1.792L24,22.452l-10.494,2.144c1.084,2.336,4.955,8.772,4.955,8.772l-2.933,6.421 C19.764,42.071,23.5,47.5,23.5,47.5s-6-3-6,5c0,8.466,3.722,11.014,6,11.5v11.043c0,1.591,0.632,3.117,1.757,4.243l11.485,10.485 c1.125,1.125,2.651,1.757,4.243,1.757h18.029c1.591,0,3.117-0.632,4.243-1.757l11.485-10.485c1.125-1.125,1.757-2.651,1.757-4.243 V64c2.567-0.129,6-2.966,6-11.5C82.5,44.5,76.5,47.5,76.5,47.5z"/><path fill="none" stroke="#40396e" stroke-linecap="round" stroke-linejoin="round" stroke-miterlimit="10" stroke-width="3" d="M76.5,47.5l6-5.701l-2.017-9.08L86,31.364l-1.966-4.612l1.471-3.32L80,23l0.501-7.498l-6.473,2.975 C69.073,8.694,57.497,6.496,57.497,6.496l0.293,7.01c-6.352-6.844-17.284-5.988-17.284-5.988L40,13.607 c-10-2.775-19.52,1.792-19.52,1.792L24,22.452l-10.494,2.144c1.084,2.336,4.955,8.772,4.955,8.772l-2.933,6.421 C19.764,42.071,23.5,47.5,23.5,47.5s-6-3-6,5c0,8.466,3.722,11.014,6,11.5v11.043c0,1.591,0.632,3.117,1.757,4.243l11.485,10.485 c1.125,1.125,2.651,1.757,4.243,1.757h18.029c1.591,0,3.117-0.632,4.243-1.757l11.485-10.485c1.125-1.125,1.757-2.651,1.757-4.243 V64c2.567-0.129,6-2.966,6-11.5C82.5,44.5,76.5,47.5,76.5,47.5z"/><path fill="#40396e" stroke="#40396e" stroke-linecap="round" stroke-linejoin="round" stroke-miterlimit="10" stroke-width="3" d="M80.483,32.719L86,31.364l-1.966-4.612l1.471-3.32L80,23l0.501-7.498l-6.473,2.975C69.073,8.694,57.497,6.496,57.497,6.496 l0.293,7.01c-6.352-6.844-17.284-5.988-17.284-5.988L40,13.607c-10-2.775-19.52,1.792-19.52,1.792L24,22.452l-10.494,2.144 c1.084,2.336,4.955,8.772,4.955,8.772l-2.933,6.421C19.764,42.071,23.5,47.5,23.5,47.5l5.324-10.286l2.118,4.562L36,39l4,6l10-7.09 l4,6.546l6-8.728l4,6.546l8-4.364l4.5,9.59l6-5.701L80.483,32.719z"/><path fill="#40396e" d="M40,80.4c-0.319,0-0.699,1.565-1.004,1.5c-1.61-0.343-2.922-1.53-2.922-2.9v-2.037 c0-1.629,0-2.963,0-2.963c0.971,0,1.936,0.095,2.926,0.238c0.649,0.094,1.319,2.839,2,2.962c2.548,0.46,13.988-0.456,16-0.8 c1.479-0.253,2.666-1.975,3.999-2.163C62.007,74.094,62.996,74,64,74c0,0,0,1.333,0,2.963V79c0,1.353-1.38,2.526-2.996,2.886 C60.673,81.96,59.342,79.6,59,79.6C54.989,79.6,44.011,80.4,40,80.4z"/><path fill="#fff" d="M61,74.239c-3.148,0.445-6.479,1.361-11.037,1.361c-4.553,0-7.882-0.914-10.963-1.36v7.649 C39.305,81.954,39.617,82,39.936,82c4.01,0,4.01,0,10.027,0c6.016,0,6.016,0,10.026,0c0.341,0,0.679-0.052,1.011-0.126V74.239z"/><path fill="#f2f2f2" d="M43.251,57c0,0-3.653,0-6.364,0s-3.636-2.455-3.636-2.455s0.909-2.455,4.545-2.455 C40.507,52.091,43.251,57,43.251,57z"/><circle cx="38.16" cy="54.545" r="2.455" fill="#2b59a1"/><path fill="#40396e" d="M44.251,55.545c1.333,0,2.005-1.625,1.047-2.552c-0.571-0.552-1.257-1.079-2.047-1.448 c-3.379-1.69-5.449-2.759-7.138-2.759c-3.38,0-4.862,2.759-4.862,2.759s0.013-0.004,0.037-0.011 c2.3-0.658,4.769-0.316,6.811,0.928C40.344,53.83,43.261,55.545,44.251,55.545L44.251,55.545z"/><path fill="#f2f2f2" d="M56.749,57c0,0,3.653,0,6.364,0s3.636-2.455,3.636-2.455s-0.909-2.455-4.545-2.455 C59.493,52.091,56.749,57,56.749,57z"/><circle cx="61.84" cy="54.545" r="2.455" fill="#2b59a1"/><path fill="#40396e" d="M55.749,55.545c-1.333,0-2.005-1.625-1.047-2.552c0.571-0.552,1.257-1.079,2.047-1.448 c3.379-1.69,5.449-2.759,7.138-2.759c3.38,0,4.862,2.759,4.862,2.759s-0.013-0.004-0.037-0.011 c-2.3-0.658-4.769-0.316-6.811,0.928C59.656,53.83,56.739,55.545,55.749,55.545L55.749,55.545z"/><g opacity=".35"><path fill="#40396e" d="M54.201,64.799L52.702,60.1l1.501-5.809l2.998,7.809l-0.75,2.75c0,0-3.438,3.152-3.432,3.15 C53.026,67.998,54.201,64.799,54.201,64.799z"/></g><g opacity=".35"><path fill="#40396e" d="M45.871,64.799L47.37,60.1l-1.501-5.809L42.871,62.1l0.75,2.75c0,0,3.438,3.152,3.432,3.15 C47.047,67.998,45.871,64.799,45.871,64.799z"/></g><polygon fill="#40396e" points="24.743,63.173 30.393,70.404 32,80 38.23,89.781 23.628,76.267" opacity=".35"/><polygon fill="#40396e" points="75.115,63.173 69.465,70.404 67.858,80 61.628,89.781 76.23,76.267" opacity=".35"/></svg>