<svg xmlns="http://www.w3.org/2000/svg"  viewBox="0 0 100 100" width="100px" height="100px"><path d="M89.918,53.731l-0.051-0.659c-0.049-0.622-0.111-1.247-0.187-1.835c0,0-0.059-0.478-0.08-0.622 c-0.229-1.624-0.565-3.253-1.012-4.896l-0.053-0.182c-0.212-0.764-0.451-1.529-0.692-2.226l-0.051-0.15 c-2.537-7.286-7.233-13.755-13.363-18.474V14.337c0-4.56-3.725-8.27-8.304-8.27h-10.38c-3.187,0-6.041,1.769-7.447,4.613 l-2.968,5.996c-20.008,2.317-35.256,19.11-35.256,39.525c0,0.786,0.027,1.581,0.085,2.503c0.012,0.194,0.05,0.663,0.05,0.663 c0.052,0.656,0.122,1.319,0.207,1.978c0,0,0.045,0.367,0.066,0.514c0.24,1.673,0.595,3.356,1.054,5.003l0.045,0.158 c0.958,3.366,2.337,6.559,4.113,9.527l-3.724,7.523c-1.279,2.58-1.132,5.58,0.394,8.026C13.892,94.541,16.529,96,19.418,96h11.418 c2.181,0,4.24-0.861,5.763-2.32c0.753,0.268,1.517,0.514,2.294,0.74l0.223,0.063c0.58,0.164,1.162,0.314,1.756,0.453l0.456,0.105 c0.525,0.116,1.052,0.221,1.589,0.318l0.588,0.104c0.502,0.082,1.005,0.151,1.5,0.213c0,0,0.491,0.064,0.665,0.083 c0.52,0.058,1.044,0.099,1.521,0.131l0.105,0.008c0.182,0.016,0.366,0.03,0.555,0.04C48.62,95.981,49.336,96,50.038,96 C72.073,96,90,78.146,90,56.202C90,55.451,89.974,54.652,89.918,53.731z" opacity=".35"/><path fill="#f2f2f2" d="M87.842,51.664l-0.051-0.659c-0.049-0.622-0.111-1.247-0.187-1.835c0,0-0.059-0.478-0.08-0.622 c-0.229-1.624-0.565-3.253-1.012-4.896L86.46,43.47c-0.212-0.764-0.451-1.529-0.692-2.226l-0.051-0.15 c-2.537-7.286-7.233-13.755-13.363-18.474V12.27c0-4.56-3.725-8.27-8.304-8.27h-10.38c-3.187,0-6.041,1.769-7.447,4.613 l-2.968,5.996C23.247,16.926,8,33.72,8,54.135c0,0.786,0.027,1.581,0.085,2.503c0.012,0.194,0.05,0.663,0.05,0.663 c0.052,0.656,0.122,1.319,0.207,1.978c0,0,0.045,0.367,0.066,0.514c0.24,1.673,0.595,3.356,1.054,5.003l0.045,0.158 c0.958,3.366,2.337,6.559,4.113,9.527l-3.724,7.523c-1.279,2.58-1.132,5.58,0.394,8.026c1.527,2.444,4.163,3.903,7.052,3.903 h11.418c2.181,0,4.24-0.861,5.763-2.32c0.753,0.268,1.517,0.514,2.294,0.74l0.223,0.063c0.58,0.164,1.162,0.314,1.756,0.453 l0.456,0.105c0.525,0.116,1.052,0.221,1.589,0.318l0.588,0.104c0.502,0.082,1.005,0.151,1.5,0.213c0,0,0.491,0.064,0.665,0.083 c0.52,0.058,1.044,0.099,1.521,0.131l0.105,0.008c0.182,0.016,0.366,0.03,0.555,0.04c0.768,0.042,1.484,0.062,2.186,0.062 c22.035,0,39.962-17.854,39.962-39.798C87.924,53.384,87.898,52.584,87.842,51.664z"/><ellipse cx="47.962" cy="54.135" fill="#ffc571" rx="29.582" ry="29.461"/><polygon fill="#de5147" points="17.342,85.663 53.671,12.27 64.051,12.27 64.051,55.685 53.671,45.348 53.671,31.91 28.759,85.663"/><rect width="20.759" height="9.303" x="34.987" y="54.652" fill="#de5147"/><polygon fill="#de5147" points="54.102,50.517 64.051,59.792 54.102,68.09"/><polygon fill="#de5147" points="64.051,63.955 54.709,72.225 64.051,72.225"/><path fill="#de5147" d="M47.962,22.607c-17.456,0-31.658,14.144-31.658,31.528c0,5.905,1.642,11.435,4.491,16.165 l3.466-7.003c-1.112-2.843-1.729-5.931-1.729-9.162c0-13.965,11.408-25.326,25.43-25.326s25.43,11.361,25.43,25.326 s-11.408,25.326-25.43,25.326c-3.944,0-7.682-0.899-11.017-2.502l-2.609,5.629c4.129,1.969,8.75,3.075,13.626,3.075 c17.456,0,31.658-14.144,31.658-31.528S65.418,22.607,47.962,22.607z"/><ellipse cx="50.525" cy="22.916" fill="#de5147" rx="3.589" ry="2.556"/><g><ellipse cx="63.854" cy="27.006" fill="#de5147" rx="3.589" ry="2.556"/></g><g><path fill="#de5147" d="M47.962,85.669c-17.453,0-31.651-14.146-31.651-31.534s14.198-31.534,31.651-31.534 s31.651,14.146,31.651,31.534S65.415,85.669,47.962,85.669z M47.962,28.815c-14.025,0-25.437,11.358-25.437,25.319 s11.411,25.319,25.437,25.319s25.437-11.358,25.437-25.319S61.987,28.815,47.962,28.815z"/></g><g><ellipse cx="27.203" cy="77.393" fill="#de5147" rx="6.747" ry="7.236"/></g><g><path fill="#40396e" d="M63.013,12.27c0.573,0,1.038,0.463,1.038,1.034v13.106c0,0.357,0.189,0.684,0.494,0.872 c6.16,3.781,10.918,9.604,13.327,16.523c0.01,0.027,0.018,0.055,0.028,0.083c0.204,0.591,0.391,1.19,0.56,1.797 c0.017,0.062,0.036,0.123,0.053,0.185c0.34,1.249,0.605,2.528,0.789,3.833c0.023,0.159,0.041,0.319,0.061,0.479 c0.061,0.487,0.111,0.977,0.15,1.471c0.014,0.18,0.03,0.359,0.041,0.54c0.039,0.643,0.066,1.29,0.066,1.944 c0,17.412-14.174,31.528-31.658,31.528c-0.583,0-1.161-0.018-1.736-0.049c-0.164-0.009-0.326-0.026-0.49-0.037 c-0.414-0.029-0.827-0.061-1.237-0.105c-0.175-0.019-0.349-0.044-0.523-0.066c-0.402-0.05-0.802-0.105-1.199-0.17 c-0.158-0.026-0.315-0.056-0.472-0.084c-0.421-0.076-0.838-0.158-1.253-0.25c-0.125-0.028-0.249-0.057-0.374-0.086 c-0.46-0.108-0.916-0.226-1.369-0.354c-0.075-0.021-0.149-0.042-0.224-0.063c-2.498-0.726-4.868-1.749-7.068-3.03 c-0.171-0.099-0.357-0.147-0.539-0.147c-0.388,0-0.76,0.214-0.936,0.594l-1.505,3.247c-0.17,0.366-0.538,0.601-0.942,0.601h-9.085 c-0.769,0-1.271-0.804-0.931-1.491l4.854-9.806c0.174-0.352,0.128-0.768-0.112-1.08c-2.391-3.109-4.212-6.673-5.313-10.541 c-0.016-0.055-0.031-0.109-0.047-0.164c-0.359-1.289-0.641-2.61-0.834-3.96c-0.019-0.135-0.034-0.27-0.052-0.405 c-0.067-0.519-0.122-1.042-0.164-1.569c-0.014-0.176-0.029-0.351-0.04-0.528c-0.041-0.657-0.069-1.317-0.069-1.984 c0-17.413,14.174-31.528,31.658-31.528c0.142,0-0.954,0.006-0.062,0.01c0.002,0,0.004,0,0.005,0c0.395,0,0.754-0.223,0.929-0.577 l4.551-9.194c0.175-0.353,0.536-0.577,0.931-0.577H63.013 M63.013,9.27h-8.696c-1.547,0-2.934,0.861-3.62,2.246L46.68,19.63 c-18.519,0.674-33.376,15.894-33.376,34.505c0,0.666,0.024,1.355,0.075,2.171c0.01,0.158,0.022,0.314,0.035,0.47l0.009,0.109 c0.045,0.572,0.106,1.15,0.179,1.716l0.016,0.131c0.013,0.105,0.026,0.211,0.041,0.316c0.207,1.445,0.514,2.905,0.913,4.337 l0.038,0.133l0.014,0.049c1.08,3.796,2.788,7.341,5.083,10.553l-4.316,8.72c-0.623,1.258-0.552,2.721,0.188,3.914 c0.742,1.195,2.024,1.908,3.432,1.908h9.085c1.568,0,3.006-0.918,3.664-2.339l0.624-1.347c1.88,0.944,3.845,1.716,5.865,2.302 l0.167,0.047l0.073,0.02c0.502,0.142,1.007,0.272,1.505,0.389c0.133,0.031,0.269,0.063,0.406,0.093 c0.457,0.101,0.914,0.192,1.375,0.275l0.104,0.019c0.136,0.025,0.273,0.05,0.41,0.072c0.438,0.072,0.876,0.132,1.316,0.187 l0.159,0.021c0.137,0.018,0.274,0.036,0.412,0.051c0.45,0.049,0.902,0.084,1.354,0.116l0.157,0.012 c0.126,0.01,0.251,0.021,0.378,0.027c0.668,0.036,1.288,0.053,1.898,0.053c19.111,0,34.658-15.489,34.658-34.528 c0-0.647-0.023-1.342-0.071-2.127c-0.009-0.154-0.022-0.305-0.034-0.457l-0.011-0.136c-0.042-0.54-0.097-1.081-0.164-1.609 l-0.016-0.131c-0.016-0.132-0.033-0.265-0.051-0.396c-0.199-1.41-0.49-2.823-0.865-4.198l-0.043-0.152l-0.016-0.056 c-0.183-0.655-0.389-1.318-0.613-1.965l-0.031-0.091c-2.488-7.145-7.316-13.32-13.655-17.497V13.303 C67.051,11.079,65.239,9.27,63.013,9.27L63.013,9.27z"/></g></svg>